<svg xmlns="http://www.w3.org/2000/svg" width="192" height="192" viewBox="0 0 192 192"><rect width="192" height="192" fill="#1a1a2e" rx="29"/><circle cx="96" cy="32" r="13" fill="#eec800" stroke="#333" stroke-width="1"/><rect x="19" y="49" width="36" height="20" rx="8" fill="#e01010" stroke="#333" stroke-width="1"/><rect x="59" y="49" width="36" height="20" rx="8" fill="#e01010" stroke="#333" stroke-width="1"/><rect x="99" y="49" width="36" height="20" rx="8" fill="#e01010" stroke="#333" stroke-width="1"/><rect x="139" y="49" width="36" height="20" rx="8" fill="#2a2a2a" stroke="#333" stroke-width="1"/><rect x="19" y="73" width="36" height="20" rx="8" fill="#e01010" stroke="#333" stroke-width="1"/><rect x="59" y="73" width="36" height="20" rx="8" fill="#e01010" stroke="#333" stroke-width="1"/><rect x="99" y="73" width="36" height="20" rx="8" fill="#2a2a2a" stroke="#333" stroke-width="1"/><rect x="139" y="73" width="36" height="20" rx="8" fill="#2a2a2a" stroke="#333" stroke-width="1"/><rect x="19" y="97" width="10" height="20" rx="6" fill="#eec800" stroke="#333" stroke-width="1"/><rect x="33" y="97" width="10" height="20" rx="6" fill="#eec800" stroke="#333" stroke-width="1"/><rect x="47" y="97" width="10" height="20" rx="6" fill="#e01010" stroke="#333" stroke-width="1"/><rect x="61" y="97" width="10" height="20" rx="6" fill="#eec800" stroke="#333" stroke-width="1"/><rect x="75" y="97" width="10" height="20" rx="6" fill="#eec800" stroke="#333" stroke-width="1"/><rect x="89" y="97" width="10" height="20" rx="6" fill="#e01010" stroke="#333" stroke-width="1"/><rect x="103" y="97" width="10" height="20" rx="6" fill="#eec800" stroke="#333" stroke-width="1"/><rect x="117" y="97" width="10" height="20" rx="6" fill="#2a2a2a" stroke="#333" stroke-width="1"/><rect x="131" y="97" width="10" height="20" rx="6" fill="#2a2a2a" stroke="#333" stroke-width="1"/><rect x="145" y="97" width="10" height="20" rx="6" fill="#2a2a2a" stroke="#333" stroke-width="1"/><rect x="159" y="97" width="10" height="20" rx="6" fill="#2a2a2a" stroke="#333" stroke-width="1"/><rect x="19" y="121" width="36" height="20" rx="8" fill="#eec800" stroke="#333" stroke-width="1"/><rect x="59" y="121" width="36" height="20" rx="8" fill="#eec800" stroke="#333" stroke-width="1"/><rect x="99" y="121" width="36" height="20" rx="8" fill="#eec800" stroke="#333" stroke-width="1"/><rect x="139" y="121" width="36" height="20" rx="8" fill="#2a2a2a" stroke="#333" stroke-width="1"/></svg>