<svg xmlns="http://www.w3.org/2000/svg" width="512" height="512" viewBox="0 0 512 512"><rect width="512" height="512" fill="#1a1a2e" rx="77"/><circle cx="256" cy="87" r="36" fill="#eec800" stroke="#333" stroke-width="1"/><rect x="51" y="133" width="95" height="53" rx="20" fill="#e01010" stroke="#333" stroke-width="1"/><rect x="156" y="133" width="95" height="53" rx="20" fill="#e01010" stroke="#333" stroke-width="1"/><rect x="261" y="133" width="95" height="53" rx="20" fill="#e01010" stroke="#333" stroke-width="1"/><rect x="366" y="133" width="95" height="53" rx="20" fill="#2a2a2a" stroke="#333" stroke-width="1"/><rect x="51" y="196" width="95" height="53" rx="20" fill="#e01010" stroke="#333" stroke-width="1"/><rect x="156" y="196" width="95" height="53" rx="20" fill="#e01010" stroke="#333" stroke-width="1"/><rect x="261" y="196" width="95" height="53" rx="20" fill="#2a2a2a" stroke="#333" stroke-width="1"/><rect x="366" y="196" width="95" height="53" rx="20" fill="#2a2a2a" stroke="#333" stroke-width="1"/><rect x="51" y="259" width="28" height="53" rx="14" fill="#eec800" stroke="#333" stroke-width="1"/><rect x="89" y="259" width="28" height="53" rx="14" fill="#eec800" stroke="#333" stroke-width="1"/><rect x="127" y="259" width="28" height="53" rx="14" fill="#e01010" stroke="#333" stroke-width="1"/><rect x="165" y="259" width="28" height="53" rx="14" fill="#eec800" stroke="#333" stroke-width="1"/><rect x="203" y="259" width="28" height="53" rx="14" fill="#eec800" stroke="#333" stroke-width="1"/><rect x="241" y="259" width="28" height="53" rx="14" fill="#e01010" stroke="#333" stroke-width="1"/><rect x="279" y="259" width="28" height="53" rx="14" fill="#eec800" stroke="#333" stroke-width="1"/><rect x="317" y="259" width="28" height="53" rx="14" fill="#2a2a2a" stroke="#333" stroke-width="1"/><rect x="355" y="259" width="28" height="53" rx="14" fill="#2a2a2a" stroke="#333" stroke-width="1"/><rect x="393" y="259" width="28" height="53" rx="14" fill="#2a2a2a" stroke="#333" stroke-width="1"/><rect x="431" y="259" width="28" height="53" rx="14" fill="#2a2a2a" stroke="#333" stroke-width="1"/><rect x="51" y="322" width="95" height="53" rx="20" fill="#eec800" stroke="#333" stroke-width="1"/><rect x="156" y="322" width="95" height="53" rx="20" fill="#eec800" stroke="#333" stroke-width="1"/><rect x="261" y="322" width="95" height="53" rx="20" fill="#eec800" stroke="#333" stroke-width="1"/><rect x="366" y="322" width="95" height="53" rx="20" fill="#2a2a2a" stroke="#333" stroke-width="1"/></svg>